<?xml version="1.0" encoding="utf-8"?>
<!-- Generator: Adobe Illustrator 18.1.1, SVG Export Plug-In . SVG Version: 6.00 Build 0)  -->
<svg version="1.1" id="Layer_1" xmlns="http://www.w3.org/2000/svg" xmlns:xlink="http://www.w3.org/1999/xlink" x="0px" y="0px"
	 viewBox="0 0 792 612" enable-background="new 0 0 792 612" xml:space="preserve">
<g>
	<path fill="#FFFFFF" d="M56.4,87.8C61.7,73.2,71.6,63.2,86.2,58c35.9,0,71.8,0,107.8,0c17.5,6,26.7,19,31.5,36.2
		c2.7,9.8,7.1,19.1,10.2,28.8c1.6,5.2,4.4,6.6,9.6,6.5c19.6-0.3,39.2-0.1,58.8-0.1c122.5,0,245.1-0.1,367.6-0.1
		c16.5,0,29,8.5,35.3,23.8c0.8,2,1.7,4,2.6,6c0,5,0,9.9,0,14.9c-0.4,0.4-0.9,0.7-1.1,1.2c-25.7,70.9-51.4,141.9-77.1,212.9
		c-7.8,21.6-18.3,29.4-41.4,29.5c-100.3,0.1-200.5,0.2-300.8,0c-17.1,0-29.4-8.4-35.8-24.5c-4-10-7.5-20.1-11.1-30.2
		c-26.7-73.8-53.5-147.6-80.1-221.5c-2-5.6-4.6-7.9-10.6-7.4c-6.6,0.5-13.2,0.1-19.9,0.1c-8.8,0-17.7-0.5-26.5,0.1
		c-24.2,1.7-41.1-7.5-48.8-31.3C56.4,97.8,56.4,92.8,56.4,87.8z M265.9,205.8c5.9,16.2,11.7,31.6,17.3,47.1
		c9.9,27.2,19.9,54.3,29.6,81.6c1.8,5.1,3.8,7.3,9.7,7.2c79.3-0.2,158.6-0.2,237.9-0.1c4,0,7,0,8.8-5
		c15.4-42.8,31.2-85.4,46.8-128.1c0.3-0.7,0.2-1.6,0.3-2.6C499.6,205.8,383.2,205.8,265.9,205.8z"/>
	<path fill="#FFFFFF" d="M664.8,496.1c-0.2-29.7-24.8-53.6-55-53.4c-29.9,0.1-54.4,24.6-54.3,54.3c0.2,30.4,24.7,55,54.7,54.9
		C640.8,551.9,665,527.1,664.8,496.1z"/>
	<path fill="#FFFFFF" d="M271.5,442.7c-29.9,0.1-54.4,24.6-54.2,54.3c0.1,30.4,24.6,54.9,54.7,54.9c30.5,0,54.8-24.9,54.6-55.8
		C326.3,466.5,301.7,442.6,271.5,442.7z"/>
</g>
</svg>
