<?xml version="1.0" encoding="utf-8"?>
<!-- Generator: Adobe Illustrator 18.1.1, SVG Export Plug-In . SVG Version: 6.00 Build 0)  -->
<svg version="1.1" id="Layer_1" xmlns="http://www.w3.org/2000/svg" xmlns:xlink="http://www.w3.org/1999/xlink" x="0px" y="0px"
	 viewBox="0 0 792 612" enable-background="new 0 0 792 612" xml:space="preserve">
<path fill="#FFFFFF" d="M684.2,82.3c-6.7-22.3-21.1-32.3-44.5-33.4c-26.7,0-52.3,0-79,0c-2.2,0-4.5,0-7.8,0
	c-1.1-11.1-5.6-21.1-14.5-27.8c-5.6-4.5-13.4-7.8-20-11.1c-85.7,0-171.4,0-257,0c-1.1,1.1-3.3,1.1-4.5,2.2
	c-14.5,5.6-24.5,15.6-27.8,32.3c-1.1,4.5-2.2,5.6-6.7,5.6c-21.1,0-42.3,0-63.4,0c-30-1.1-41.2,5.6-52.3,33.4c0,8.9,0,17.8,0,26.7
	c1.1,3.3,2.2,6.7,4.5,10c7.8,15.6,21.1,23.4,38.9,24.5c7.8,0,16.7,0,25.6,0c0,3.3,0,5.6,0,7.8c0,138,0,276,0,415
	c0,17.8,7.8,30,23.4,33.4c2.2,1.1,5.6,1.1,8.9,1.1c128,0,255.9,0,385,0c18.9,0,31.2-12.2,32.3-31.2c0-2.2,0-4.5,0-7.8
	c0-136.9,0-272.6,0-409.5c0-3.3,0-5.6,0-10c7.8,0,15.6,1.1,22.3,0c18.9-2.2,31.2-13.4,36.7-31.2c0-1.1,1.1-2.2,1.1-3.3
	c0-8.9,0-17.8,0-26.7C685.3,83.5,684.2,82.3,684.2,82.3z M314.8,172.5c0,117.9,0,234.8,0,352.7c0,15.6-10,27.8-25.6,28.9
	c-14.5,2.2-28.9-10-31.2-24.5c0-3.3,0-5.6,0-8.9c0-57.9,0-115.7,0-172.5c0-59,0-116.8,0-175.8c0-17.8,12.2-30,27.8-30
	c14.5,0,27.8,12.2,27.8,26.7C314.8,171.4,314.8,172.5,314.8,172.5z M428.3,349.4c0,59,0,117.9,0,175.8c0,16.7-8.9,26.7-23.4,30
	c-16.7,3.3-32.3-8.9-33.4-25.6c0-1.1,0-1.1,0-2.2c0-117.9,0-235.9,0-353.8c0-16.7,12.2-30,28.9-28.9c15.6,0,27.8,12.2,27.8,30
	c0,46.7,0,93.5,0,140.2C428.3,324.9,428.3,337.2,428.3,349.4z M542.9,521.9c0,4.5,0,10-2.2,14.5c-3.3,12.2-16.7,20-27.8,18.9
	c-13.4-1.1-24.5-11.1-26.7-24.5c0-3.3-1.1-6.7-1.1-8.9c0-57.9,0-115.7,0-172.5c0-28.9,0-57.9,0-86.8c0-28.9,0-57.9,0-86.8
	c0-15.6,7.8-25.6,20-30c17.8-5.6,35.6,6.7,36.7,26.7c0,2.2,0,3.3,0,5.6C542.9,292.6,542.9,407.3,542.9,521.9z"/>
</svg>
