<?xml version="1.0" encoding="utf-8"?>
<!-- Generator: Adobe Illustrator 18.1.1, SVG Export Plug-In . SVG Version: 6.00 Build 0)  -->
<svg version="1.1" id="Layer_1" xmlns="http://www.w3.org/2000/svg" xmlns:xlink="http://www.w3.org/1999/xlink" x="0px" y="0px"
	 viewBox="188.8 197.4 200 200" enable-background="new 188.8 197.4 200 200" xml:space="preserve">
<g>
	<circle fill="#D03131" cx="289.9" cy="297.6" r="96.6"/>
	<path fill="#FFFFFF" d="M230.9,312.2c-8.6,0-15.1-6.9-15.1-15.3c0-8.6,7-15.9,15.4-15.9c3,0,7.4,0.9,9.2,3.6
		c0.6,0.9,0.9,1.8,0.9,2.8c0,2.2-1.6,4-3.8,4c-0.9,0-1.7-0.3-2.4-0.8l1.5-1.8c0.3,0.2,0.7,0.3,1,0.3c0.8,0,1.4-0.8,1.4-1.7
		c0-0.6-0.3-1.2-0.8-1.7c-1.6-1.7-4.6-2.3-6.9-2.3c-7.2,0-13.1,6.3-13.1,13.6c0,7,5.5,12.9,12.8,12.9c4.2,0,8-2,10.3-5.2l2,1.3
		C240.2,310.2,235.5,312.2,230.9,312.2z"/>
	<path fill="#FFFFFF" d="M266.8,311.6c-2.3,0-3.9-1.7-3.9-3.8v-11.3c0-3.3-1.8-4.8-5-4.8c-3.1,0-5,1.7-7,4.3v15.1h-2.4v-30.9h2.4v13
		c1.8-2.6,4.2-3.7,7.3-3.7c4.8,0,7.1,2.4,7.1,6.9v11.4c0,0.9,0.7,1.4,1.5,1.4c0.5,0,1-0.2,1.2-0.6l2,1.3
		C269.3,311,268.1,311.6,266.8,311.6z"/>
	<path fill="#FFFFFF" d="M318.4,311.2H316l-5.9-17.6l-5.9,17.6h-2.5l-5.9-17.7c-0.4-0.9-1.3-1.9-2.1-2.4l1.3-1.9
		c1.6,1.1,2.7,2.6,3.4,4.6l4.6,13.7l5.9-17.6h2.4l5.9,17.6l5.9-17.6h2.4L318.4,311.2z"/>
	<path fill="#FFFFFF" d="M336.4,311.7c-2.9,0-5.4-0.9-7.4-2.5l1.2-1.8c2,1.3,4.1,2,6.4,2c2.7,0,5.1-1,5.1-3.9c0-1.8-1-2.9-3-3.8
		c-3.7-1.7-8.6-2.3-8.6-6.8c0-3.5,2.9-5.4,6.4-5.4c1.8,0,4.2,0.5,5.6,1.3l-0.5,2.2c-1.8-0.9-3.8-1.3-5.1-1.3c-2.5,0-3.8,1.2-3.8,2.9
		c0,3.4,5.3,3.9,8.6,5.8c2,1.2,3,2.7,3,5C344.2,310,340.4,311.7,336.4,311.7z"/>
	<path fill="#FFFFFF" d="M358.5,291.9c-1.7,0-2.7,0.3-3.7,1.1c-0.7,0.6-1.8,1.7-2.5,3.1v15.2h-2.4v-15c0-2.3-0.6-3.9-1.7-5.1
		l1.5-1.4c1.3,1,2,2.2,2.4,3.7c0.7-1.3,1.7-2.3,2.7-2.9c1.1-0.7,2.4-0.9,3.7-0.9c0.6,0,0.9,0,2.5,0.3v2.2
		C359.8,291.9,359.1,291.9,358.5,291.9z"/>
	<path fill="#FFFFFF" d="M353.8,233.8c-17-17-39.7-26.4-63.8-26.4c-24.1,0-46.8,9.4-63.8,26.4c-17,17-26.4,39.7-26.4,63.8
		c0,24.1,9.4,46.8,26.4,63.8c17,17,39.7,26.4,63.8,26.4c24.1,0,46.8-9.4,63.8-26.4c17-17,26.4-39.7,26.4-63.8
		C380.2,273.5,370.8,250.9,353.8,233.8z M352.8,360.5c-16.8,16.8-39.1,26-62.8,26c-23.7,0-46-9.2-62.8-26
		c-16.8-16.8-26-39.1-26-62.8c0-23.7,9.2-46,26-62.8c16.8-16.8,39.1-26,62.8-26c23.7,0,46,9.2,62.8,26c16.8,16.8,26,39.1,26,62.8
		C378.8,321.4,369.5,343.7,352.8,360.5z"/>
	<path fill="#FFFFFF" d="M289.1,307.4c-2.2,1.1-4.3,2-7,2c-4.4,0-6.6-2.4-7.1-6.7h5.1c5.8,0,9.6-2.3,9.6-6.6c0-4-3.5-6.6-7.7-6.6
		c-6.8,0-9.6,6.3-9.6,11.8c0,5.8,3,10.2,9.7,10.2c3.1,0,5.8-1,8.1-2.5L289.1,307.4z M282.1,291.7c2.7,0,5.2,1.4,5.2,4.4
		c0,3.3-3,4.4-7.1,4.4h-5.3C274.9,297.1,276.9,291.7,282.1,291.7z"/>
</g>
</svg>
