<?xml version="1.0" encoding="utf-8"?>
<!-- Generator: Adobe Illustrator 18.1.1, SVG Export Plug-In . SVG Version: 6.00 Build 0)  -->
<svg version="1.1" id="Layer_1" xmlns="http://www.w3.org/2000/svg" xmlns:xlink="http://www.w3.org/1999/xlink" x="0px" y="0px"
	 viewBox="0 0 55 55" enable-background="new 0 0 55 55" xml:space="preserve">
<path fill="#FFFFFF" d="M53.4,7.4c-0.6-2-1.9-2.9-4-3c-2.4,0-4.7,0-7.1,0c-0.2,0-0.4,0-0.7,0c-0.1-1-0.5-1.9-1.3-2.5
	c-0.5-0.4-1.2-0.7-1.8-1c-7.7,0-15.4,0-23.1,0C15.3,1,15.1,1,15,1.1c-1.3,0.5-2.2,1.4-2.5,2.9c-0.1,0.4-0.2,0.5-0.6,0.5
	c-1.9,0-3.8,0-5.7,0C3.5,4.4,2.5,5,1.5,7.5c0,0.8,0,1.6,0,2.4c0.1,0.3,0.2,0.6,0.4,0.9c0.7,1.4,1.9,2.1,3.5,2.2c0.7,0,1.5,0,2.3,0
	c0,0.3,0,0.5,0,0.7c0,12.4,0,24.8,0,37.3c0,1.6,0.7,2.7,2.1,3c0.2,0.1,0.5,0.1,0.8,0.1c11.5,0,23,0,34.6,0c1.7,0,2.8-1.1,2.9-2.8
	c0-0.2,0-0.4,0-0.7c0-12.3,0-24.5,0-36.8c0-0.3,0-0.5,0-0.9c0.7,0,1.4,0.1,2,0c1.7-0.2,2.8-1.2,3.3-2.8c0-0.1,0.1-0.2,0.1-0.3
	c0-0.8,0-1.6,0-2.4C53.5,7.5,53.4,7.4,53.4,7.4z M20.2,15.5c0,10.6,0,21.1,0,31.7c0,1.4-0.9,2.5-2.3,2.6c-1.3,0.2-2.6-0.9-2.8-2.2
	c0-0.3,0-0.5,0-0.8c0-5.2,0-10.4,0-15.5c0-5.3,0-10.5,0-15.8c0-1.6,1.1-2.7,2.5-2.7c1.3,0,2.5,1.1,2.5,2.4
	C20.2,15.4,20.2,15.5,20.2,15.5z M30.4,31.4c0,5.3,0,10.6,0,15.8c0,1.5-0.8,2.4-2.1,2.7c-1.5,0.3-2.9-0.8-3-2.3c0-0.1,0-0.1,0-0.2
	c0-10.6,0-21.2,0-31.8c0-1.5,1.1-2.7,2.6-2.6c1.4,0,2.5,1.1,2.5,2.7c0,4.2,0,8.4,0,12.6C30.4,29.2,30.4,30.3,30.4,31.4z M40.7,46.9
	c0,0.4,0,0.9-0.2,1.3C40.2,49.3,39,50,38,49.9c-1.2-0.1-2.2-1-2.4-2.2c0-0.3-0.1-0.6-0.1-0.8c0-5.2,0-10.4,0-15.5c0-2.6,0-5.2,0-7.8
	c0-2.6,0-5.2,0-7.8c0-1.4,0.7-2.3,1.8-2.7c1.6-0.5,3.2,0.6,3.3,2.4c0,0.2,0,0.3,0,0.5C40.7,26.3,40.7,36.6,40.7,46.9z"/>
</svg>
